<svg width="8" height="682" viewBox="0 0 8 682" fill="none" xmlns="http://www.w3.org/2000/svg">
<mask id="mask0_3791_737" style="mask-type:alpha" maskUnits="userSpaceOnUse" x="1" y="0" width="7" height="674">
<rect x="8" width="674" height="7" transform="rotate(90 8 0)" fill="url(#paint0_linear_3791_737)"/>
</mask>
<g mask="url(#mask0_3791_737)">
<g opacity="0.5">
<path d="M8 1.80376V0L0.723633 0V1.80376L8 1.80376Z" fill="white"/>
<path opacity="0.4" d="M7 8.01665V6.21289H1.91699V8.01665H7Z" fill="white"/>
<path opacity="0.4" d="M7 14.1294V12.3257H1.91699V14.1294H7Z" fill="white"/>
<path opacity="0.4" d="M7 20.3423V18.5386H1.91699V20.3423H7Z" fill="white"/>
<path opacity="0.4" d="M7 26.5552V24.7515H1.91699V26.5552H7Z" fill="white"/>
<path d="M8 32.668V30.8643H0.723633V32.668H8Z" fill="white"/>
<path opacity="0.4" d="M7 38.8809V37.0771H1.91699V38.8809H7Z" fill="white"/>
<path opacity="0.4" d="M7 45.0941V43.2903H1.91699V45.0941H7Z" fill="white"/>
<path opacity="0.4" d="M7 51.2066V49.4028H1.91699V51.2066H7Z" fill="white"/>
<path opacity="0.4" d="M7 57.4197V55.616H1.91699V57.4197H7Z" fill="white"/>
<path d="M8 63.6326V61.8289H0.723633V63.6326H8Z" fill="white"/>
<path opacity="0.4" d="M7 69.7454V67.9417H1.91699V69.7454H7Z" fill="white"/>
<path opacity="0.4" d="M7 75.9583V74.1545H1.91699V75.9583H7Z" fill="white"/>
<path opacity="0.4" d="M7 82.0711V80.2673H1.91699V82.0711H7Z" fill="white"/>
<path opacity="0.4" d="M7 88.284V86.4802H1.91699V88.284H7Z" fill="white"/>
<path d="M8 94.4969V92.6931H0.723633V94.4969H8Z" fill="white"/>
<path opacity="0.4" d="M7 100.61V98.8059H1.91699V100.61H7Z" fill="white"/>
<path opacity="0.4" d="M7 106.823V105.019H1.91699V106.823H7Z" fill="white"/>
<path opacity="0.4" d="M7 113.035V111.232H1.91699V113.035H7Z" fill="white"/>
<path opacity="0.4" d="M7 119.148V117.344H1.91699V119.148H7Z" fill="white"/>
<path d="M8 125.361V123.557H0.723633V125.361H8Z" fill="white"/>
<path opacity="0.4" d="M7 131.574V129.77H1.91699V131.574H7Z" fill="white"/>
<path opacity="0.4" d="M7 137.687V135.883H1.91699V137.687H7Z" fill="white"/>
<path opacity="0.4" d="M7 143.9V142.096H1.91699V143.9H7Z" fill="white"/>
<path opacity="0.4" d="M7 150.113V148.309H1.91699V150.113H7Z" fill="white"/>
<path d="M8 156.226V154.422H0.723633V156.226H8Z" fill="white"/>
<path opacity="0.4" d="M7 162.439V160.635H1.91699V162.439H7Z" fill="white"/>
<path opacity="0.4" d="M7 168.651V166.848H1.91699V168.651H7Z" fill="white"/>
<path opacity="0.4" d="M7 174.764V172.96H1.91699V174.764H7Z" fill="white"/>
<path opacity="0.4" d="M7 180.977V179.173H1.91699V180.977H7Z" fill="white"/>
<path d="M8 187.19V185.386H0.723633V187.19H8Z" fill="white"/>
<path opacity="0.4" d="M7 193.303V191.499H1.91699V193.303H7Z" fill="white"/>
<path opacity="0.4" d="M7 199.516V197.712H1.91699V199.516H7Z" fill="white"/>
<path opacity="0.4" d="M7 205.628V203.825H1.91699V205.628H7Z" fill="white"/>
<path opacity="0.4" d="M7 211.841V210.038H1.91699V211.841H7Z" fill="white"/>
<path d="M8 218.054V216.25H0.723633V218.054H8Z" fill="white"/>
<path opacity="0.4" d="M7 224.167V222.363H1.91699V224.167H7Z" fill="white"/>
<path opacity="0.4" d="M7 230.38V228.576H1.91699V230.38H7Z" fill="white"/>
<path opacity="0.4" d="M7 236.593V234.789H1.91699V236.593H7Z" fill="white"/>
<path opacity="0.4" d="M7 242.706V240.902H1.91699V242.706H7Z" fill="white"/>
<path d="M8 248.919V247.115H0.723633V248.919H8Z" fill="white"/>
<path opacity="0.4" d="M7 255.132V253.328H1.91699V255.132H7Z" fill="white"/>
<path opacity="0.4" d="M7 261.244V259.44H1.91699V261.244H7Z" fill="white"/>
<path opacity="0.4" d="M7 267.457V265.653H1.91699V267.457H7Z" fill="white"/>
<path opacity="0.4" d="M7 273.67V271.866H1.91699V273.67H7Z" fill="white"/>
<path d="M8 279.783V277.979H0.723633V279.783H8Z" fill="white"/>
<path opacity="0.4" d="M7 285.996V284.192H1.91699V285.996H7Z" fill="white"/>
<path opacity="0.4" d="M7 292.209V290.405H1.91699V292.209H7Z" fill="white"/>
<path opacity="0.4" d="M7 298.322V296.518H1.91699V298.322H7Z" fill="white"/>
<path opacity="0.4" d="M7 304.534V302.731H1.91699V304.534H7Z" fill="white"/>
<path d="M8 310.747V308.944H0.723633V310.747H8Z" fill="white"/>
<path opacity="0.4" d="M7 316.86V315.056H1.91699V316.86H7Z" fill="white"/>
<path opacity="0.4" d="M7 323.073V321.269H1.91699V323.073H7Z" fill="white"/>
<path opacity="0.4" d="M7 329.186V327.382H1.91699V329.186H7Z" fill="white"/>
<path opacity="0.4" d="M7 335.399V333.595H1.91699V335.399H7Z" fill="white"/>
<path d="M8 341.612V339.808H0.723633V341.612H8Z" fill="white"/>
<path opacity="0.4" d="M7 347.724V345.921H1.91699V347.724H7Z" fill="white"/>
<path opacity="0.4" d="M7 353.937V352.134H1.91699V353.937H7Z" fill="white"/>
<path opacity="0.4" d="M7 360.15V358.347H1.91699V360.15H7Z" fill="white"/>
<path opacity="0.4" d="M7 366.263V364.459H1.91699V366.263H7Z" fill="white"/>
<path d="M8 372.476V370.672H0.723633V372.476H8Z" fill="white"/>
<path opacity="0.4" d="M7 378.689V376.885H1.91699V378.689H7Z" fill="white"/>
<path opacity="0.4" d="M7 384.802V382.998H1.91699V384.802H7Z" fill="white"/>
<path opacity="0.4" d="M7 391.015V389.211H1.91699V391.015H7Z" fill="white"/>
<path opacity="0.4" d="M7 397.228V395.424H1.91699V397.228H7Z" fill="white"/>
<path d="M8 403.34V401.537H0.723633V403.34H8Z" fill="white"/>
<path opacity="0.4" d="M7 409.553V407.75H1.91699V409.553H7Z" fill="white"/>
<path opacity="0.4" d="M7 415.766V413.962H1.91699V415.766H7Z" fill="white"/>
<path opacity="0.4" d="M7 421.879V420.075H1.91699V421.879H7Z" fill="white"/>
<path opacity="0.4" d="M7 428.092V426.288H1.91699V428.092H7Z" fill="white"/>
<path d="M8 434.305V432.501H0.723633V434.305H8Z" fill="white"/>
<path opacity="0.4" d="M7 440.417V438.614H1.91699V440.417H7Z" fill="white"/>
<path opacity="0.4" d="M7 446.63V444.827H1.91699V446.63H7Z" fill="white"/>
<path opacity="0.4" d="M7 452.843V451.04H1.91699V452.843H7Z" fill="white"/>
<path opacity="0.4" d="M7 458.956V457.152H1.91699V458.956H7Z" fill="white"/>
<path d="M8 465.169V463.365H0.723633V465.169H8Z" fill="white"/>
<path opacity="0.4" d="M7 471.282V469.478H1.91699V471.282H7Z" fill="white"/>
<path opacity="0.4" d="M7 477.495V475.691H1.91699V477.495H7Z" fill="white"/>
<path opacity="0.4" d="M7 483.708V481.904H1.91699V483.708H7Z" fill="white"/>
<path opacity="0.4" d="M7 489.82V488.017H1.91699V489.82H7Z" fill="white"/>
<path d="M8 496.033V494.23H0.723633V496.033H8Z" fill="white"/>
<path opacity="0.4" d="M7 502.246V500.443H1.91699V502.246H7Z" fill="white"/>
<path opacity="0.4" d="M7 508.359V506.555H1.91699V508.359H7Z" fill="white"/>
<path opacity="0.4" d="M7 514.572V512.768H1.91699V514.572H7Z" fill="white"/>
<path opacity="0.4" d="M7 520.785V518.981H1.91699V520.785H7Z" fill="white"/>
<path d="M8 526.898V525.094H0.723633V526.898H8Z" fill="white"/>
<path opacity="0.4" d="M7 533.111V531.307H1.91699V533.111H7Z" fill="white"/>
<path opacity="0.4" d="M7 539.324V537.52H1.91699V539.324H7Z" fill="white"/>
<path opacity="0.4" d="M7 545.436V543.633H1.91699V545.436H7Z" fill="white"/>
<path opacity="0.4" d="M7 551.649V549.845H1.91699V551.649H7Z" fill="white"/>
<path d="M8 557.862V556.059H0.723633V557.862H8Z" fill="white"/>
<path opacity="0.4" d="M7 563.975V562.171H1.91699V563.975H7Z" fill="white"/>
<path opacity="0.4" d="M7 570.188V568.384H1.91699V570.188H7Z" fill="white"/>
<path opacity="0.4" d="M7 576.401V574.597H1.91699V576.401H7Z" fill="white"/>
<path opacity="0.4" d="M7 582.514V580.71H1.91699V582.514H7Z" fill="white"/>
<path d="M8 588.727V586.923H0.723633V588.727H8Z" fill="white"/>
<path opacity="0.4" d="M7 594.839V593.035H1.91699V594.839H7Z" fill="white"/>
<path opacity="0.4" d="M7 601.052V599.249H1.91699V601.052H7Z" fill="white"/>
<path opacity="0.4" d="M7 607.265V605.461H1.91699V607.265H7Z" fill="white"/>
<path opacity="0.4" d="M7 613.378V611.574H1.91699V613.378H7Z" fill="white"/>
<path d="M8 619.591V617.787H0.723633V619.591H8Z" fill="white"/>
<path opacity="0.4" d="M7 625.804V624H1.91699V625.804H7Z" fill="white"/>
<path opacity="0.4" d="M7 631.917V630.113H1.91699V631.917H7Z" fill="white"/>
<path opacity="0.4" d="M7 638.129V636.326H1.91699V638.129H7Z" fill="white"/>
<path opacity="0.4" d="M7 644.342V642.539H1.91699V644.342H7Z" fill="white"/>
<path d="M8 650.455V648.651H0.723633V650.455H8Z" fill="white"/>
<path opacity="0.4" d="M7 656.668V654.864H1.91699V656.668H7Z" fill="white"/>
<path opacity="0.4" d="M7 662.881V661.077H1.91699V662.881H7Z" fill="white"/>
<path opacity="0.4" d="M7 668.994V667.19H1.91699V668.994H7Z" fill="white"/>
<path opacity="0.4" d="M7 675.207V673.403H1.91699V675.207H7Z" fill="white"/>
</g>
</g>
<defs>
<linearGradient id="paint0_linear_3791_737" x1="8" y1="0" x2="682" y2="4.21257e-08" gradientUnits="userSpaceOnUse">
<stop offset="0.867027" stop-color="#C4C4C4"/>
<stop offset="1" stop-color="#C4C4C4" stop-opacity="0"/>
</linearGradient>
</defs>
</svg>
